<svg width="40" height="48" viewBox="0 0 40 48" fill="none" xmlns="http://www.w3.org/2000/svg">
<path d="M10.1254 8.21211C10.3067 8.21211 10.4806 8.14009 10.6088 8.01189C10.737 7.88369 10.809 7.70982 10.809 7.52852V6.45312H23.9648V9.94375H23.6395C21.6648 9.94602 19.7717 10.7315 18.3754 12.1277C16.9791 13.524 16.1937 15.4172 16.1914 17.3918C16.1914 17.4816 16.209 17.5705 16.2433 17.6535C16.2777 17.7364 16.328 17.8118 16.3915 17.8753C16.455 17.9388 16.5304 17.9891 16.6133 18.0235C16.6963 18.0578 16.7852 18.0754 16.875 18.0754H32.425C32.6063 18.0754 32.7802 18.0034 32.9084 17.8752C33.0366 17.747 33.1086 17.5731 33.1086 17.3918C33.1063 15.4171 32.3208 13.5239 30.9245 12.1276C29.5281 10.7313 27.6349 9.94592 25.6602 9.94375H25.332V5.76953C25.3321 5.67975 25.3144 5.59083 25.2801 5.50787C25.2458 5.42491 25.1954 5.34953 25.1319 5.28604C25.0684 5.22256 24.9931 5.1722 24.9101 5.13787C24.8271 5.10353 24.7382 5.08589 24.6484 5.08594H10.809V4.01289C10.809 3.83159 10.737 3.65772 10.6088 3.52952C10.4806 3.40132 10.3067 3.3293 10.1254 3.3293H1.67969V1.53906C1.67969 1.35776 1.60767 1.18389 1.47947 1.05569C1.35127 0.92749 1.17739 0.855469 0.996094 0.855469C0.814793 0.855469 0.640919 0.92749 0.51272 1.05569C0.384521 1.18389 0.3125 1.35776 0.3125 1.53906V10.0027C0.3125 10.184 0.384521 10.3579 0.51272 10.4861C0.640919 10.6143 0.814793 10.6863 0.996094 10.6863C1.17739 10.6863 1.35127 10.6143 1.47947 10.4861C1.60767 10.3579 1.67969 10.184 1.67969 10.0027V8.21211H10.1254ZM31.7031 16.7082H17.5969C17.7666 15.224 18.476 13.8539 19.5902 12.8587C20.7044 11.8635 22.1455 11.3127 23.6395 11.3109H25.6602C27.1541 11.3127 28.5953 11.8635 29.7095 12.8587C30.8238 13.8539 31.5333 15.2239 31.7031 16.7082ZM9.4418 4.69648V6.84492H1.67969V4.69648H9.4418ZM24.6484 20.0938C24.5587 20.0937 24.4697 20.1113 24.3868 20.1457C24.3038 20.18 24.2284 20.2304 24.1649 20.2939C24.1015 20.3573 24.0511 20.4327 24.0168 20.5157C23.9824 20.5986 23.9648 20.6876 23.9648 20.7773V21.9492C23.9648 22.1305 24.0369 22.3044 24.1651 22.4326C24.2933 22.5608 24.4671 22.6328 24.6484 22.6328C24.8297 22.6328 25.0036 22.5608 25.1318 22.4326C25.26 22.3044 25.332 22.1305 25.332 21.9492V20.7773C25.3321 20.6876 25.3144 20.5986 25.2801 20.5157C25.2458 20.4327 25.1954 20.3573 25.1319 20.2939C25.0684 20.2304 24.9931 20.18 24.9101 20.1457C24.8271 20.1113 24.7382 20.0937 24.6484 20.0938ZM24.6484 41.3203C24.8297 41.3202 25.0035 41.2482 25.1317 41.12C25.2599 40.9918 25.3319 40.818 25.332 40.6367V38.4375C25.332 38.2562 25.26 38.0823 25.1318 37.9541C25.0036 37.8259 24.8297 37.7539 24.6484 37.7539C24.4671 37.7539 24.2933 37.8259 24.1651 37.9541C24.0369 38.0823 23.9648 38.2562 23.9648 38.4375V40.6367C23.9657 40.8178 24.038 40.9912 24.166 41.1192C24.294 41.2472 24.4674 41.3195 24.6484 41.3203ZM24.6484 31.5234C24.4674 31.5243 24.294 31.5965 24.166 31.7246C24.038 31.8526 23.9657 32.026 23.9648 32.207V34.4062C23.9648 34.5876 24.0369 34.7614 24.1651 34.8896C24.2933 35.0178 24.4671 35.0898 24.6484 35.0898C24.8297 35.0898 25.0036 35.0178 25.1318 34.8896C25.26 34.7614 25.332 34.5876 25.332 34.4062V32.207C25.3319 32.0258 25.2599 31.8519 25.1317 31.7238C25.0035 31.5956 24.8297 31.5235 24.6484 31.5234ZM25.3316 25.9801C25.3316 25.7988 25.2596 25.6249 25.1314 25.4967C25.0032 25.3685 24.8293 25.2965 24.648 25.2965C24.4667 25.2965 24.2929 25.3685 24.1647 25.4967C24.0365 25.6249 23.9645 25.7988 23.9645 25.9801V28.1797C23.9645 28.361 24.0365 28.5349 24.1647 28.6631C24.2929 28.7913 24.4667 28.8633 24.648 28.8633C24.8293 28.8633 25.0032 28.7913 25.1314 28.6631C25.2596 28.5349 25.3316 28.361 25.3316 28.1797V25.9801ZM24.6484 43.9832C24.5587 43.9832 24.4697 44.0008 24.3868 44.0351C24.3038 44.0695 24.2284 44.1198 24.1649 44.1833C24.1015 44.2468 24.0511 44.3222 24.0168 44.4051C23.9824 44.4881 23.9648 44.577 23.9648 44.6668V45.8387C23.9648 46.02 24.0369 46.1938 24.1651 46.322C24.2933 46.4502 24.4671 46.5223 24.6484 46.5223C24.8297 46.5223 25.0036 46.4502 25.1318 46.322C25.26 46.1938 25.332 46.02 25.332 45.8387V44.6668C25.3321 44.577 25.3144 44.4881 25.2801 44.4051C25.2458 44.3222 25.1954 44.2468 25.1319 44.1833C25.0684 44.1198 24.9931 44.0695 24.9101 44.0351C24.8271 44.0008 24.7382 43.9832 24.6484 43.9832ZM33.059 21.7309L32.7543 20.598C32.7045 20.426 32.5892 20.2804 32.4332 20.1925C32.2771 20.1046 32.0928 20.0814 31.9199 20.128C31.747 20.1746 31.5992 20.2872 31.5084 20.4415C31.4176 20.5959 31.391 20.7797 31.4344 20.9535L31.7391 22.0863C31.7883 22.2591 31.9035 22.4055 32.0598 22.494C32.2162 22.5825 32.401 22.6059 32.5745 22.5591C32.7479 22.5124 32.896 22.3992 32.9866 22.2441C33.0773 22.0891 33.1033 21.9045 33.059 21.7305V21.7309ZM36.5156 34.5738L35.9062 32.3082C35.8558 32.1346 35.7402 31.9872 35.5836 31.8969C35.427 31.8066 35.2415 31.7804 35.066 31.8238C34.9197 31.8639 34.7907 31.9511 34.699 32.0718C34.6072 32.1925 34.5577 32.3401 34.5582 32.4918C34.5613 32.5499 34.5704 32.6075 34.5855 32.6637L35.1945 34.9293C35.2164 35.0176 35.2557 35.1006 35.3101 35.1735C35.3645 35.2464 35.4329 35.3077 35.5112 35.3539C35.5896 35.4001 35.6764 35.4301 35.7665 35.4423C35.8567 35.4546 35.9483 35.4487 36.0361 35.425C36.124 35.4014 36.2062 35.3605 36.278 35.3047C36.3499 35.2489 36.4098 35.1793 36.4544 35.1C36.4991 35.0208 36.5274 34.9334 36.5378 34.8431C36.5483 34.7527 36.541 34.6612 36.5156 34.5738ZM38.2422 40.9961L37.6328 38.7305C37.5833 38.5572 37.4686 38.4099 37.3126 38.3195C37.1567 38.2292 36.9718 38.2028 36.7969 38.2461C36.6498 38.2848 36.52 38.3716 36.4279 38.4926C36.3359 38.6137 36.287 38.762 36.2891 38.9141C36.2889 38.9722 36.2968 39.03 36.3125 39.0859L36.9215 41.3516C36.9714 41.5235 37.0868 41.6691 37.2429 41.7569C37.3989 41.8447 37.5832 41.8679 37.7561 41.8213C37.929 41.7748 38.0768 41.6623 38.1677 41.508C38.2586 41.3537 38.2853 41.1699 38.2422 40.9961ZM34.7188 28.6719C34.7639 28.5941 34.793 28.508 34.8044 28.4188C34.8158 28.3296 34.8093 28.239 34.7852 28.1523L34.1758 25.8867C34.1524 25.8 34.1123 25.7188 34.0575 25.6476C34.0028 25.5765 33.9346 25.5168 33.8567 25.472C33.7789 25.4272 33.6931 25.3981 33.604 25.3865C33.515 25.3749 33.4246 25.381 33.3379 25.4043C33.2512 25.4276 33.17 25.4678 33.0988 25.5226C33.0276 25.5773 32.9679 25.6455 32.9231 25.7233C32.8784 25.8011 32.8493 25.887 32.8377 25.976C32.8261 26.0651 32.8321 26.1555 32.8555 26.2422L33.4648 28.5078C33.4867 28.5955 33.5261 28.6779 33.5806 28.75C33.6352 28.8221 33.7038 28.8824 33.7822 28.9273C33.8607 28.9722 33.9474 29.0007 34.0372 29.0112C34.127 29.0217 34.218 29.0139 34.3047 28.9883C34.3911 28.9653 34.4721 28.9256 34.5432 28.8713C34.6142 28.817 34.6739 28.7492 34.7188 28.6719ZM39.6656 46.2832L39.3605 45.1504C39.3198 44.998 39.2274 44.8644 39.0992 44.7725C38.971 44.6805 38.8149 44.6358 38.6574 44.6461C38.6117 44.6484 38.5662 44.6553 38.5219 44.6668C38.5156 44.6688 38.5105 44.673 38.5043 44.675C38.4466 44.6925 38.3916 44.7178 38.3406 44.75C38.327 44.7586 38.3137 44.766 38.3016 44.7754C38.2522 44.8107 38.2078 44.8525 38.1695 44.8996C38.1586 44.9137 38.1492 44.9281 38.1395 44.9426C38.1074 44.9882 38.0811 45.0377 38.0613 45.0898C38.0551 45.1059 38.0508 45.1219 38.0461 45.1383C38.031 45.1915 38.0223 45.2463 38.0203 45.3016C38.0203 45.3129 38.0152 45.323 38.0152 45.3348C38.0152 45.3465 38.018 45.35 38.0184 45.3578C38.0205 45.385 38.0241 45.4119 38.0293 45.4387C38.0312 45.4615 38.0343 45.4842 38.0387 45.5066C38.0387 45.5117 38.043 45.5156 38.0445 45.5207L38.3453 46.6375C38.3951 46.8095 38.5104 46.9552 38.6665 47.0431C38.8225 47.131 39.0068 47.1541 39.1797 47.1075C39.3527 47.061 39.5004 46.9484 39.5912 46.794C39.682 46.6396 39.7086 46.4558 39.6652 46.282L39.6656 46.2832ZM28.4875 22.6195C28.6674 22.5975 28.8312 22.5051 28.943 22.3624C29.0548 22.2197 29.1053 22.0385 29.0836 21.8586L28.9422 20.6949C28.9203 20.5149 28.8279 20.351 28.6851 20.2391C28.5424 20.1273 28.3611 20.0768 28.1811 20.0986C28.001 20.1205 27.8371 20.213 27.7253 20.3557C27.6134 20.4984 27.5629 20.6798 27.5848 20.8598L27.7262 22.023C27.7465 22.1887 27.8266 22.3413 27.9514 22.4521C28.0763 22.5629 28.2374 22.6242 28.4043 22.6246C28.4321 22.6246 28.4599 22.6229 28.4875 22.6195ZM30.8242 41.8316C31.0041 41.8093 31.1679 41.7167 31.2798 41.5741C31.3918 41.4315 31.4428 41.2504 31.4219 41.0703L31.1445 38.8125C31.1242 38.6399 31.0387 38.4815 30.9055 38.3698C30.7724 38.2581 30.6016 38.2014 30.4281 38.2114C30.2545 38.2214 30.0913 38.2972 29.9719 38.4235C29.8524 38.5497 29.7856 38.7168 29.7852 38.8906C29.7845 38.9193 29.7858 38.948 29.7891 38.9766L30.0625 41.2344C30.0832 41.4002 30.1637 41.5527 30.2888 41.6635C30.4139 41.7742 30.5751 41.8355 30.7422 41.8359C30.7696 41.8366 30.797 41.8352 30.8242 41.8316ZM29.2656 29.023C29.4455 29.0006 29.6092 28.908 29.7211 28.7654C29.8331 28.6228 29.8841 28.4418 29.8633 28.2617L29.5859 26.0039C29.5752 25.9149 29.547 25.8288 29.5029 25.7507C29.4589 25.6726 29.3999 25.6039 29.3294 25.5486C29.2588 25.4932 29.178 25.4523 29.0917 25.4282C29.0053 25.4041 28.915 25.3972 28.826 25.408C28.7369 25.4188 28.6509 25.447 28.5728 25.491C28.4947 25.535 28.426 25.594 28.3706 25.6646C28.3153 25.7351 28.2744 25.8159 28.2503 25.9023C28.2262 25.9887 28.2193 26.0789 28.2301 26.168L28.5035 28.4258C28.5242 28.5916 28.6047 28.7441 28.7298 28.8549C28.8549 28.9656 29.0161 29.0269 29.1832 29.0273C29.2107 29.0279 29.2383 29.0264 29.2656 29.023ZM30.0469 35.4297C30.2262 35.4064 30.389 35.3133 30.5002 35.1707C30.6113 35.0282 30.6618 34.8475 30.6406 34.668L30.3672 32.4062C30.3468 32.2331 30.2611 32.0743 30.1276 31.9622C29.9941 31.8502 29.8228 31.7933 29.6488 31.8033C29.4747 31.8133 29.3111 31.8893 29.1912 32.0159C29.0714 32.1425 29.0044 32.3101 29.0039 32.4844C29.0033 32.5129 29.0046 32.5415 29.0078 32.5699L29.2852 34.8316C29.3044 34.9974 29.3839 35.1503 29.5085 35.2612C29.6331 35.3722 29.7941 35.4336 29.9609 35.4336C29.9922 35.4336 30.0191 35.4297 30.0469 35.4297ZM31.925 45.2148C31.9153 45.1248 31.8878 45.0376 31.8441 44.9582C31.8004 44.8789 31.7414 44.809 31.6705 44.7527C31.5996 44.6963 31.5181 44.6547 31.431 44.6301C31.3438 44.6055 31.2526 44.5984 31.1627 44.6094C31.0728 44.6203 30.986 44.649 30.9072 44.6938C30.8285 44.7386 30.7595 44.7986 30.7041 44.8703C30.6488 44.942 30.6083 45.024 30.5849 45.1115C30.5615 45.199 30.5558 45.2903 30.568 45.3801L30.7098 46.5438C30.7299 46.7094 30.8099 46.8619 30.9348 46.9726C31.0596 47.0833 31.2207 47.1444 31.3875 47.1445C31.4154 47.1446 31.4434 47.1429 31.4711 47.1395C31.6511 47.1175 31.815 47.0249 31.9267 46.8822C32.0385 46.7394 32.089 46.5581 32.0672 46.3781L31.925 45.2148ZM17.5609 22.0859L17.8652 20.9531C17.9086 20.7794 17.882 20.5955 17.7912 20.4411C17.7004 20.2868 17.5527 20.1742 17.3797 20.1276C17.2068 20.0811 17.0225 20.1042 16.8665 20.1921C16.7104 20.28 16.5951 20.4256 16.5453 20.5977L16.241 21.7305C16.1967 21.9045 16.2227 22.0891 16.3134 22.2441C16.404 22.3992 16.5521 22.5124 16.7255 22.5591C16.899 22.6059 17.0838 22.5825 17.2402 22.494C17.3965 22.4055 17.5117 22.2591 17.5609 22.0863V22.0859ZM12.5039 38.2461C12.3289 38.2023 12.1438 38.2284 11.9878 38.3189C11.8317 38.4093 11.717 38.5569 11.668 38.7305L11.0582 40.9961C11.0118 41.1712 11.0362 41.3575 11.1262 41.5147C11.2163 41.6719 11.3646 41.7873 11.5391 41.8359C11.5981 41.8493 11.6583 41.8572 11.7188 41.8594C11.8691 41.8584 12.015 41.8082 12.1342 41.7165C12.2534 41.6248 12.3394 41.4966 12.3789 41.3516L12.9883 39.0859C13.0002 39.0293 13.0079 38.9718 13.0113 38.9141C13.0119 38.7625 12.9624 38.6149 12.8707 38.4942C12.779 38.3734 12.6501 38.2862 12.5039 38.2461ZM11.2812 45.3359V45.3277C11.281 45.1877 11.2373 45.0513 11.1562 44.9371C11.1484 44.9258 11.1414 44.9148 11.1328 44.9043C11.0943 44.856 11.0493 44.8131 10.9992 44.777C10.9863 44.7676 10.9723 44.7598 10.9582 44.7512C10.9089 44.7198 10.8555 44.6953 10.7996 44.6781C10.7922 44.6758 10.7863 44.6707 10.7789 44.6684C10.734 44.6569 10.6881 44.65 10.6418 44.6477C10.5079 44.6398 10.3746 44.6715 10.2585 44.7387C10.1424 44.8059 10.0486 44.9057 9.98867 45.0258C9.96772 45.0661 9.9511 45.1085 9.93906 45.1523C9.93925 45.1561 9.93925 45.1599 9.93906 45.1637L9.63789 46.2836C9.61264 46.3709 9.60503 46.4623 9.61551 46.5525C9.62599 46.6427 9.65435 46.73 9.69894 46.8091C9.74353 46.8883 9.80344 46.9578 9.87518 47.0135C9.94692 47.0692 10.0291 47.1101 10.1168 47.1337C10.2045 47.1573 10.296 47.1632 10.3861 47.1511C10.4761 47.1389 10.5628 47.1089 10.6411 47.0629C10.7194 47.0168 10.7877 46.9556 10.8421 46.8829C10.8965 46.8101 10.9358 46.7272 10.9578 46.6391L11.2621 45.5062C11.2759 45.452 11.2832 45.3962 11.2836 45.3402L11.2812 45.3359ZM14.2301 31.8242C14.0551 31.7796 13.8697 31.8054 13.7135 31.8959C13.5573 31.9865 13.4428 32.1346 13.3945 32.3086L12.7852 34.5742C12.7381 34.7493 12.7622 34.936 12.8522 35.0934C12.9422 35.2508 13.0908 35.3662 13.2656 35.4145C13.3243 35.4299 13.3847 35.4378 13.4453 35.4379C13.5957 35.4369 13.7416 35.3867 13.8608 35.295C13.98 35.2033 14.0659 35.0752 14.1055 34.9301L14.7148 32.6645C14.7306 32.6085 14.7384 32.5507 14.7383 32.4926C14.7404 32.3404 14.6915 32.1919 14.5994 32.0708C14.5073 31.9497 14.3773 31.8629 14.2301 31.8242ZM15.9609 25.4023C15.7855 25.3583 15.5997 25.3842 15.443 25.4745C15.2862 25.5649 15.1708 25.7128 15.1211 25.8867L14.5117 28.1523C14.4886 28.239 14.4827 28.3294 14.4945 28.4183C14.5064 28.5072 14.5356 28.593 14.5805 28.6706C14.6255 28.7482 14.6853 28.8162 14.7565 28.8707C14.8277 28.9253 14.909 28.9652 14.9957 28.9883C15.053 29.005 15.1122 29.0141 15.1719 29.0156H15.1754C15.3253 29.0146 15.4708 28.9643 15.5894 28.8726C15.7081 28.7808 15.7933 28.6527 15.832 28.5078L16.4449 26.2422C16.4901 26.0667 16.4647 25.8805 16.3742 25.7236C16.2837 25.5666 16.1354 25.4513 15.9609 25.4023ZM21.1195 20.0988C21.0304 20.0878 20.94 20.0945 20.8534 20.1185C20.7669 20.1425 20.6859 20.1833 20.6152 20.2386C20.5445 20.294 20.4854 20.3627 20.4413 20.441C20.3972 20.5192 20.3689 20.6054 20.3582 20.6945L20.2164 21.8582C20.1945 22.0382 20.2449 22.2195 20.3566 22.3622C20.4683 22.505 20.6322 22.5976 20.8121 22.6195C20.8398 22.6229 20.8678 22.6246 20.8957 22.6246C21.0626 22.6244 21.2236 22.5631 21.3485 22.4524C21.4733 22.3417 21.5533 22.1891 21.5734 22.0234L21.7156 20.8602C21.7375 20.6802 21.6869 20.4989 21.5752 20.3561C21.4634 20.2133 21.2995 20.1208 21.1195 20.0988ZM20.4727 25.4062C20.2928 25.3866 20.1124 25.4382 19.97 25.5499C19.8277 25.6616 19.7347 25.8245 19.7109 26.0039L19.4375 28.2617C19.4156 28.4414 19.4658 28.6223 19.5771 28.765C19.6884 28.9077 19.8517 29.0005 20.0313 29.023C20.0598 29.0265 20.0885 29.028 20.1172 29.0273C20.2843 29.0269 20.4455 28.9656 20.5706 28.8549C20.6957 28.7441 20.7762 28.5916 20.7969 28.4258L21.0703 26.168C21.0913 25.9878 21.0402 25.8067 20.9283 25.6641C20.8164 25.5214 20.6526 25.4287 20.4727 25.4062ZM19.6953 31.8086C19.5152 31.7877 19.3341 31.8388 19.1915 31.9507C19.0489 32.0626 18.9562 32.2264 18.9336 32.4062L18.6562 34.668C18.6359 34.848 18.6872 35.0288 18.799 35.1713C18.9108 35.3138 19.0742 35.4066 19.2539 35.4297C19.2812 35.4297 19.3082 35.4336 19.3359 35.4336C19.5031 35.4331 19.6643 35.3717 19.7894 35.2609C19.9145 35.1501 19.9949 34.9975 20.0156 34.8316L20.2891 32.5699C20.2936 32.5416 20.2962 32.513 20.2969 32.4844C20.2949 32.3182 20.2329 32.1583 20.1224 32.0341C20.0118 31.9099 19.8602 31.8299 19.6953 31.8086ZM18.9141 38.2148C18.7341 38.1945 18.5533 38.2458 18.4107 38.3576C18.2682 38.4694 18.1754 38.6328 18.1523 38.8125L17.8789 41.0703C17.8573 41.25 17.9076 41.4309 18.0189 41.5735C18.1302 41.7162 18.2935 41.809 18.473 41.8316C18.5015 41.8353 18.5303 41.8368 18.559 41.8359C18.7257 41.8358 18.8867 41.7745 19.0112 41.6636C19.1358 41.5527 19.2153 41.4 19.2348 41.2344L19.5121 38.9766C19.5154 38.948 19.5167 38.9193 19.516 38.8906C19.5147 38.7241 19.4529 38.5638 19.3422 38.4395C19.2315 38.3151 19.0793 38.2353 18.9141 38.2148ZM18.1359 44.6187C17.9559 44.5971 17.7747 44.6478 17.632 44.7596C17.4892 44.8714 17.3967 45.0353 17.3746 45.2152L17.2332 46.3785C17.2114 46.5585 17.2619 46.7397 17.3737 46.8824C17.4855 47.0251 17.6494 47.1176 17.8293 47.1395C17.8569 47.1429 17.8847 47.1446 17.9125 47.1445C18.0794 47.1442 18.2404 47.083 18.3653 46.9723C18.4902 46.8616 18.5703 46.709 18.5906 46.5434L18.732 45.3797C18.7538 45.1998 18.7032 45.0186 18.5914 44.8759C18.4797 44.7332 18.3158 44.6407 18.1359 44.6187Z" fill="#1B4B55"/>
</svg>
