<svg width="36" height="24" viewBox="0 0 36 24" fill="none" xmlns="http://www.w3.org/2000/svg">
<path d="M32.2617 9.42534V3.91374C32.2617 1.44802 30.4435 0.541504 28.739 0.541504H7.14805C5.44351 0.541504 3.62533 1.41176 3.62533 3.91374V9.42534C1.92078 9.60664 0.291992 10.6945 0.291992 13.1964V17.4752C0.291992 18.2004 0.898053 18.7806 1.65563 18.7806H2.11017V22.1528C2.11017 22.878 2.71623 23.4582 3.47381 23.4582H4.76169C5.51926 23.4582 6.12532 22.878 6.12532 22.1528V18.7443H29.8753V22.1528C29.8753 22.878 30.4814 23.4582 31.239 23.4582H32.5268C33.2844 23.4582 33.8905 22.878 33.8905 22.1528V18.7443H34.345C35.1026 18.7443 35.7087 18.1641 35.7087 17.4389V13.1964C35.595 10.6945 33.9662 9.60664 32.2617 9.42534ZM4.9132 3.91374H4.98896C4.98896 2.20949 6.1632 1.84688 7.14805 1.84688H28.739C29.7238 1.84688 30.8981 2.20949 30.8981 3.91374V9.38908H29.8753V6.27067C29.8753 5.54546 29.2693 4.96529 28.5117 4.96529H20.1784C19.4208 4.96529 18.8147 5.54546 18.8147 6.27067V9.38908H17.2238V6.27067C17.2238 5.54546 16.6177 4.96529 15.8602 4.96529H7.52684C6.76926 4.96529 6.1632 5.54546 6.1632 6.27067V9.38908H4.9132V3.91374ZM28.5117 6.27067V9.38908H20.1784V6.27067H28.5117ZM15.9359 6.27067V9.38908H7.6026V6.27067H15.9359ZM4.72381 22.1528H3.43593V18.7443H4.72381V22.1528ZM32.4511 22.1528H31.1632V18.7443H32.4511V22.1528ZM34.2314 17.4752H1.61775V15.5534H34.2314V17.4752ZM34.2314 14.248H1.61775V13.1964C1.61775 11.0208 3.28442 10.6945 4.23139 10.6945H31.6177C32.6026 10.6945 34.2314 11.0208 34.2314 13.1964V14.248Z" fill="#1B4B55"/>
</svg>
