<svg width="38" height="26" viewBox="0 0 38 26" fill="none" xmlns="http://www.w3.org/2000/svg">
<path d="M21.0383 21.4344V9.6539H25.5695C26.4273 9.65277 27.2497 9.31145 27.8562 8.70482C28.4626 8.09819 28.8038 7.27577 28.8047 6.41797C28.8046 6.2367 28.7325 6.06289 28.6044 5.93471C28.4762 5.80653 28.3024 5.73448 28.1211 5.73438H9.87891C9.69764 5.73448 9.52382 5.80653 9.39565 5.93471C9.26747 6.06289 9.19542 6.2367 9.19531 6.41797C9.19624 7.27597 9.53752 8.09857 10.1443 8.70523C10.751 9.3119 11.5736 9.65308 12.4316 9.6539H16.9629V21.4344C16.2727 21.6167 15.6621 22.0219 15.2261 22.587C14.79 23.1522 14.5529 23.8456 14.5516 24.5594C14.5516 24.7407 14.6236 24.9145 14.7518 25.0427C14.88 25.1709 15.0539 25.243 15.2352 25.243H22.766C22.9473 25.243 23.1212 25.1709 23.2494 25.0427C23.3776 24.9145 23.4496 24.7407 23.4496 24.5594C23.4483 23.8456 23.2112 23.1522 22.7751 22.587C22.339 22.0219 21.7284 21.6167 21.0383 21.4344ZM10.6918 7.10156H27.3082C27.1704 7.45073 26.9308 7.75043 26.6206 7.96176C26.3103 8.17309 25.9437 8.28631 25.5684 8.28672H12.4316C12.0563 8.28631 11.6897 8.17309 11.3794 7.96176C11.0692 7.75043 10.8296 7.45073 10.6918 7.10156ZM19.6711 9.6539V21.3238H18.3289V9.6539H19.6711ZM16.0469 23.8762C16.1846 23.527 16.4242 23.2272 16.7345 23.0159C17.0447 22.8046 17.4113 22.6914 17.7867 22.691H20.2133C20.5887 22.6914 20.9553 22.8046 21.2655 23.0159C21.5758 23.2272 21.8154 23.527 21.9531 23.8762H16.0469Z" fill="#1B4B55"/>
<path d="M36.5781 0.580078H35.8148C34.9569 0.580906 34.1343 0.922099 33.5276 1.52878C32.9209 2.13545 32.5797 2.95804 32.5789 3.81601V10.8906C32.5786 11.1879 32.4604 11.4728 32.2502 11.683C32.04 11.8932 31.755 12.0114 31.4578 12.0117H27.1117C26.2537 12.0125 25.4311 12.3537 24.8243 12.9604C24.2176 13.5671 23.8763 14.3896 23.8754 15.2477V16.0109C23.8754 16.1922 23.9474 16.3661 24.0756 16.4943C24.2038 16.6225 24.3777 16.6945 24.559 16.6945H26.4027L25.7457 24.6797C25.7324 24.8595 25.7907 25.0372 25.9078 25.1743C26.025 25.3113 26.1915 25.3965 26.3712 25.4113C26.5509 25.4262 26.7291 25.3694 26.8671 25.2535C27.0052 25.1375 27.0918 24.9717 27.1082 24.7922L27.7723 16.7004H33.8297L34.8324 24.8199C34.8523 24.986 34.9325 25.1391 35.0577 25.25C35.1829 25.361 35.3444 25.4221 35.5117 25.4219C35.5401 25.422 35.5684 25.4202 35.5965 25.4164C35.6856 25.4054 35.7716 25.377 35.8497 25.3328C35.9278 25.2885 35.9965 25.2293 36.0517 25.1586C36.1069 25.0878 36.1476 25.0068 36.1715 24.9203C36.1954 24.8338 36.2021 24.7434 36.191 24.6543L35.1973 16.6094C35.788 16.4543 36.3109 16.1082 36.6843 15.6249C37.0578 15.1416 37.2608 14.5483 37.2617 13.9375V1.26367C37.2618 1.17389 37.2441 1.08497 37.2098 1.00201C37.1755 0.91905 37.1251 0.843671 37.0616 0.780183C36.9981 0.716695 36.9227 0.666344 36.8398 0.632009C36.7568 0.597673 36.6679 0.580027 36.5781 0.580078ZM35.8945 13.9375C35.894 14.3079 35.7466 14.663 35.4847 14.9249C35.2228 15.1869 34.8677 15.3342 34.4973 15.3348H33.3543C33.3239 15.3305 33.2932 15.3284 33.2625 15.3285H25.2426V15.2504C25.2432 14.7549 25.4403 14.2799 25.7907 13.9295C26.1412 13.5792 26.6162 13.3822 27.1117 13.3816H31.4578C32.1175 13.3808 32.7499 13.1184 33.2164 12.6519C33.6828 12.1855 33.9453 11.553 33.9461 10.8934V3.81601C33.9467 3.32058 34.1438 2.84562 34.4941 2.49529C34.8444 2.14497 35.3194 1.94789 35.8148 1.94727H35.893L35.8945 13.9375ZM10.8883 12.0117H6.54219C6.24495 12.0114 5.95998 11.8932 5.7498 11.683C5.53962 11.4728 5.4214 11.1879 5.42109 10.8906V3.81601C5.42016 2.95808 5.07894 2.13554 4.47228 1.52889C3.86563 0.922234 3.04309 0.581009 2.18516 0.580078H1.42188C1.33209 0.580027 1.24318 0.597673 1.16021 0.632009C1.07725 0.666344 1.00187 0.716695 0.938387 0.780183C0.874899 0.843671 0.824548 0.91905 0.790212 1.00201C0.755876 1.08497 0.73823 1.17389 0.738281 1.26367V13.9375C0.739402 14.5481 0.942498 15.1412 1.31592 15.6244C1.68934 16.1075 2.2121 16.4536 2.80273 16.6086L1.80898 24.6555C1.79794 24.7446 1.80457 24.8349 1.82848 24.9215C1.85238 25.008 1.89311 25.0889 1.94832 25.1597C2.00354 25.2305 2.07216 25.2897 2.15026 25.3339C2.22837 25.3782 2.31442 25.4066 2.40352 25.4176C2.43148 25.4213 2.45967 25.4231 2.48789 25.423C2.65453 25.4229 2.81537 25.3619 2.94017 25.2514C3.06498 25.141 3.14515 24.9888 3.16563 24.8234L4.16836 16.7039H10.2258L10.8918 24.7957C10.9082 24.9752 10.9948 25.141 11.1329 25.257C11.2709 25.3729 11.4491 25.4297 11.6288 25.4148C11.8085 25.4 11.975 25.3148 12.0922 25.1778C12.2093 25.0408 12.2676 24.863 12.2543 24.6832L11.5973 16.6945H13.441C13.6223 16.6945 13.7962 16.6225 13.9244 16.4943C14.0526 16.3661 14.1246 16.1922 14.1246 16.0109V15.2477C14.1237 14.3896 13.7824 13.5671 13.1757 12.9604C12.5689 12.3537 11.7463 12.0125 10.8883 12.0117ZM12.7574 15.3273H4.7375C4.70718 15.3272 4.67689 15.3293 4.64688 15.3336H3.50273C3.13249 15.3332 2.7775 15.186 2.51559 14.9243C2.25367 14.6626 2.10619 14.3077 2.10547 13.9375V1.94727H2.18359C2.67903 1.94789 3.15399 2.14497 3.50431 2.49529C3.85464 2.84562 4.05172 3.32058 4.05234 3.81601V10.8906C4.05317 11.5503 4.31559 12.1827 4.78206 12.6492C5.24852 13.1157 5.88095 13.3781 6.54063 13.3789H10.8883C11.3838 13.3794 11.8588 13.5765 12.2093 13.9268C12.5597 14.2771 12.7568 14.7522 12.7574 15.2477V15.3273Z" fill="#1B4B55"/>
</svg>
