<svg width="40" height="38" viewBox="0 0 40 38" fill="none" xmlns="http://www.w3.org/2000/svg">
<path d="M28.1465 3.71104C28.2281 3.76196 28.2926 3.83609 28.3318 3.92392C28.371 4.01175 28.383 4.10928 28.3664 4.20401C28.338 4.33362 28.2758 4.45339 28.186 4.55111C28.0963 4.64882 27.9822 4.72099 27.8555 4.76026C27.6819 4.81279 27.5364 4.9321 27.4508 5.09194C27.3653 5.25179 27.3467 5.43908 27.3992 5.61261C27.4517 5.78614 27.5711 5.93169 27.7309 6.01726C27.8907 6.10282 28.078 6.12138 28.2516 6.06886C28.6194 5.9574 28.9498 5.74756 29.2071 5.46199C29.4644 5.17643 29.6387 4.82599 29.7113 4.44854C29.775 4.10633 29.7397 3.75306 29.6097 3.43016C29.4797 3.10727 29.2604 2.82813 28.9773 2.6255C28.8465 2.5255 28.5477 2.26964 28.5898 2.04971C28.6113 1.97751 28.6491 1.91119 28.7002 1.85586C28.7513 1.80054 28.8145 1.75768 28.8848 1.73057C28.9719 1.70681 29.0536 1.666 29.1249 1.6105C29.1962 1.55499 29.2558 1.48591 29.3002 1.40723C29.3446 1.32855 29.373 1.24184 29.3838 1.15212C29.3945 1.0624 29.3873 0.971443 29.3626 0.884512C29.338 0.797581 29.2963 0.716401 29.2401 0.645667C29.1839 0.574932 29.1142 0.516047 29.0351 0.472418C28.9559 0.428788 28.8689 0.401278 28.7791 0.391481C28.6893 0.381684 28.5984 0.389793 28.5117 0.415339C28.1973 0.511606 27.9142 0.690104 27.6919 0.932384C27.4695 1.17466 27.3159 1.47193 27.2469 1.79346C27.1703 2.19425 27.1879 2.97589 28.1465 3.71104ZM32.5563 3.71104C32.6379 3.76189 32.7025 3.836 32.7417 3.92386C32.7809 4.01171 32.7929 4.10928 32.7762 4.20401C32.7479 4.33353 32.6857 4.45324 32.5961 4.55095C32.5065 4.64865 32.3926 4.72088 32.266 4.76026C32.0925 4.81279 31.9469 4.9321 31.8614 5.09194C31.7758 5.25179 31.7572 5.43908 31.8098 5.61261C31.8623 5.78614 31.9816 5.93169 32.1414 6.01726C32.3013 6.10282 32.4886 6.12138 32.6621 6.06886C33.0299 5.95734 33.3602 5.74747 33.6174 5.46191C33.8746 5.17635 34.0489 4.82594 34.1215 4.44854C34.1853 4.10636 34.1501 3.75309 34.0202 3.43018C33.8903 3.10727 33.6709 2.82812 33.3879 2.6255C33.2574 2.5255 32.9582 2.26964 33 2.04971C33.0215 1.97748 33.0594 1.91115 33.1106 1.85583C33.1618 1.8005 33.225 1.75765 33.2953 1.73057C33.3825 1.70681 33.4641 1.666 33.5354 1.6105C33.6067 1.55499 33.6663 1.48591 33.7107 1.40723C33.7552 1.32855 33.7836 1.24184 33.7943 1.15212C33.805 1.0624 33.7978 0.971443 33.7732 0.884512C33.7485 0.797581 33.7069 0.716401 33.6507 0.645667C33.5944 0.574932 33.5247 0.516047 33.4456 0.472418C33.3665 0.428788 33.2795 0.401278 33.1897 0.391481C33.0998 0.381684 33.0089 0.389793 32.9223 0.415339C32.6078 0.511533 32.3247 0.690008 32.1023 0.932299C31.88 1.17459 31.7264 1.4719 31.6574 1.79346C31.5805 2.19425 31.5957 2.97589 32.5563 3.71104ZM39.2215 14.7767H35.6008V13.3556C35.6008 13.1743 35.5288 13.0004 35.4006 12.8722C35.2724 12.744 35.0985 12.672 34.9172 12.672C34.9023 12.672 34.8871 12.672 34.882 12.6071C35.4718 12.0444 35.9408 11.3674 36.2602 10.6174C36.5797 9.86742 36.743 9.06021 36.7402 8.24503C36.7402 8.06373 36.6682 7.88985 36.54 7.76165C36.4118 7.63346 36.2379 7.56143 36.0566 7.56143H25.3129C25.2231 7.56138 25.1342 7.57903 25.0512 7.61336C24.9683 7.6477 24.8929 7.69805 24.8294 7.76154C24.7659 7.82503 24.7156 7.90041 24.6812 7.98337C24.6469 8.06633 24.6292 8.15524 24.6293 8.24503C24.6294 9.06563 24.7944 9.87784 25.1146 10.6334C25.4349 11.3889 25.9037 12.0724 26.4934 12.6431C26.4816 12.672 26.4664 12.672 26.452 12.672C26.3622 12.6719 26.2733 12.6896 26.1903 12.7239C26.1073 12.7582 26.032 12.8086 25.9685 12.8721C25.905 12.9356 25.8546 13.011 25.8203 13.0939C25.786 13.1769 25.7683 13.2658 25.7684 13.3556V14.7767H22.8324V11.261C22.8325 11.1713 22.8148 11.0823 22.7805 10.9994C22.7462 10.9164 22.6958 10.841 22.6323 10.7776C22.5688 10.7141 22.4935 10.6637 22.4105 10.6294C22.3275 10.595 22.2386 10.5774 22.1488 10.5774H17.9742V8.07081C17.9742 7.88951 17.9022 7.71563 17.774 7.58743C17.6458 7.45924 17.4719 7.38721 17.2906 7.38721H15.9234C15.7421 7.38721 15.5683 7.45924 15.4401 7.58743C15.3119 7.71563 15.2398 7.88951 15.2398 8.07081C15.2398 8.25211 15.3119 8.42598 15.4401 8.55418C15.5683 8.68238 15.7421 8.7544 15.9234 8.7544H16.607V10.5774H12.1488V8.07081C12.1488 7.88951 12.0768 7.71563 11.9486 7.58743C11.8204 7.45924 11.6465 7.38721 11.4652 7.38721C11.2839 7.38721 11.1101 7.45924 10.9819 7.58743C10.8537 7.71563 10.7816 7.88951 10.7816 8.07081V10.5774H6.3207V8.7544H7.0043C7.1856 8.7544 7.35947 8.68238 7.48767 8.55418C7.61587 8.42598 7.68789 8.25211 7.68789 8.07081C7.68789 7.88951 7.61587 7.71563 7.48767 7.58743C7.35947 7.45924 7.1856 7.38721 7.0043 7.38721H5.63711C5.45584 7.38732 5.28203 7.45937 5.15385 7.58755C5.02567 7.71573 4.95362 7.88954 4.95352 8.07081V10.5774H0.779297C0.689512 10.5774 0.600597 10.595 0.517636 10.6294C0.434676 10.6637 0.359297 10.7141 0.295809 10.7776C0.232321 10.841 0.18197 10.9164 0.147634 10.9994C0.113299 11.0823 0.0956519 11.1713 0.0957032 11.261V34.4056C0.0957032 34.5869 0.167725 34.7607 0.295923 34.889C0.424122 35.0171 0.597997 35.0892 0.779297 35.0892H1.39688V36.9274C1.39688 37.1087 1.4689 37.2826 1.5971 37.4108C1.72529 37.539 1.89917 37.611 2.08047 37.611H37.9203C38.1016 37.611 38.2755 37.539 38.4037 37.4108C38.5319 37.2826 38.6039 37.1087 38.6039 36.9274V35.0892H39.2215C39.4028 35.0892 39.5767 35.0171 39.7049 34.889C39.8331 34.7607 39.9051 34.5869 39.9051 34.4056V15.4603C39.9051 15.3705 39.8875 15.2816 39.8532 15.1986C39.8188 15.1156 39.7685 15.0403 39.705 14.9768C39.6415 14.9133 39.5661 14.8629 39.4832 14.8286C39.4002 14.7943 39.3113 14.7766 39.2215 14.7767ZM38.5379 24.2493H22.8324V16.1439H38.5379V24.2493ZM37.9203 33.722H22.8324V25.6165H38.5379V33.722H37.9203ZM1.46289 33.722V16.1439H21.4652V33.722H1.46289ZM27.4359 11.6212C26.6846 10.9044 26.1955 9.9563 26.0469 8.92862H35.3242C35.1753 9.95639 34.6859 10.9045 33.9344 11.6212C33.7325 11.8143 33.5934 12.0637 33.5351 12.3369C33.4767 12.6101 33.502 12.8945 33.6074 13.1532C33.7276 13.455 33.9484 13.706 34.2324 13.8638V14.7767H27.1371V13.8638C27.421 13.706 27.6418 13.455 27.7621 13.1532C27.8677 12.8946 27.893 12.6102 27.8348 12.337C27.7767 12.0638 27.6377 11.8144 27.4359 11.6212ZM1.46289 11.9446H21.4652V14.7767H1.46289V11.9446ZM2.76406 36.2439V35.0892H37.2367V36.2439H2.76406Z" fill="#1B4B55"/>
<path d="M30.6852 21.759C31.3324 21.7583 31.953 21.5009 32.4107 21.0432C32.8684 20.5855 33.1258 19.9649 33.1266 19.3176C33.1266 19.1363 33.0545 18.9625 32.9263 18.8343C32.7981 18.7061 32.6243 18.634 32.443 18.634H28.9273C28.8376 18.634 28.7486 18.6516 28.6657 18.686C28.5827 18.7203 28.5073 18.7707 28.4439 18.8341C28.3804 18.8976 28.33 18.973 28.2957 19.056C28.2613 19.1389 28.2437 19.2278 28.2437 19.3176C28.2445 19.9649 28.5019 20.5855 28.9596 21.0432C29.4173 21.5009 30.0379 21.7583 30.6852 21.759ZM31.5133 20.0012C31.4126 20.1234 31.2861 20.2218 31.1429 20.2893C30.9997 20.3569 30.8433 20.3919 30.685 20.3919C30.5266 20.3919 30.3703 20.3569 30.227 20.2893C30.0838 20.2218 29.9574 20.1234 29.8566 20.0012H31.5133ZM32.443 28.1067H28.9273C28.8376 28.1066 28.7486 28.1243 28.6657 28.1586C28.5827 28.193 28.5073 28.2433 28.4439 28.3068C28.3804 28.3703 28.33 28.4457 28.2957 28.5286C28.2613 28.6116 28.2437 28.7005 28.2437 28.7903C28.2437 29.4378 28.501 30.0588 28.9588 30.5166C29.4167 30.9745 30.0377 31.2317 30.6852 31.2317C31.3327 31.2317 31.9536 30.9745 32.4115 30.5166C32.8693 30.0588 33.1266 29.4378 33.1266 28.7903C33.1266 28.609 33.0545 28.4351 32.9263 28.3069C32.7981 28.1787 32.6243 28.1067 32.443 28.1067ZM30.6852 29.8645C30.5268 29.8645 30.3704 29.8295 30.2271 29.762C30.0839 29.6945 29.9574 29.5961 29.8566 29.4739H31.5133C31.4126 29.596 31.2861 29.6944 31.143 29.7619C30.9998 29.8294 30.8435 29.8645 30.6852 29.8645ZM6.66602 19.1872C6.21192 19.1876 5.77654 19.3681 5.45541 19.6892C5.13429 20.0102 4.95364 20.4456 4.95312 20.8997V28.6399C4.95313 29.0942 5.13359 29.5299 5.45482 29.8511C5.77605 30.1723 6.21173 30.3528 6.66602 30.3528C7.1203 30.3528 7.55598 30.1723 7.87721 29.8511C8.19844 29.5299 8.37891 29.0942 8.37891 28.6399V20.8997C8.37839 20.4456 8.19775 20.0102 7.87662 19.6892C7.55549 19.3681 7.12011 19.1876 6.66602 19.1872ZM7.01172 28.6403C7.01172 28.732 6.9753 28.8199 6.91047 28.8847C6.84563 28.9496 6.7577 28.986 6.66602 28.986C6.57433 28.986 6.4864 28.9496 6.42157 28.8847C6.35673 28.8199 6.32031 28.732 6.32031 28.6403V20.8997C6.32031 20.808 6.35673 20.72 6.42157 20.6552C6.4864 20.5904 6.57433 20.554 6.66602 20.554C6.7577 20.554 6.84563 20.5904 6.91047 20.6552C6.9753 20.72 7.01172 20.808 7.01172 20.8997V28.6403ZM11.4633 19.1872C11.0093 19.1877 10.574 19.3683 10.2529 19.6893C9.93189 20.0104 9.7513 20.4456 9.75078 20.8997V28.6399C9.75078 29.0942 9.93125 29.5299 10.2525 29.8511C10.5737 30.1723 11.0094 30.3528 11.4637 30.3528C11.918 30.3528 12.3536 30.1723 12.6749 29.8511C12.9961 29.5299 13.1766 29.0942 13.1766 28.6399V20.8997C13.1759 20.4455 12.9952 20.0102 12.674 19.6891C12.3528 19.3681 11.9174 19.1876 11.4633 19.1872ZM11.8094 28.6403C11.8094 28.732 11.773 28.8199 11.7081 28.8847C11.6433 28.9496 11.5554 28.986 11.4637 28.986C11.3721 28.9859 11.2842 28.9494 11.2195 28.8846C11.1547 28.8198 11.1184 28.7319 11.1184 28.6403V20.8997C11.1184 20.808 11.1548 20.72 11.2196 20.6552C11.2844 20.5904 11.3724 20.554 11.4641 20.554C11.5557 20.554 11.6437 20.5904 11.7085 20.6552C11.7733 20.72 11.8098 20.808 11.8098 20.8997L11.8094 28.6403ZM16.2613 19.1872C15.8072 19.1876 15.3719 19.3681 15.0507 19.6892C14.7296 20.0102 14.549 20.4456 14.5484 20.8997V28.6399C14.545 28.867 14.5868 29.0925 14.6713 29.3033C14.7558 29.5141 14.8814 29.706 15.0408 29.8678C15.2002 30.0296 15.3902 30.1581 15.5997 30.2458C15.8092 30.3335 16.034 30.3786 16.2611 30.3786C16.4883 30.3786 16.7131 30.3335 16.9226 30.2458C17.1321 30.1581 17.3221 30.0296 17.4814 29.8678C17.6408 29.706 17.7664 29.5141 17.851 29.3033C17.9355 29.0925 17.9773 28.867 17.9738 28.6399V20.8997C17.9734 20.4456 17.7929 20.0103 17.4718 19.6892C17.1507 19.3681 16.7154 19.1876 16.2613 19.1872ZM16.6066 28.6403C16.6082 28.6866 16.6004 28.7328 16.5838 28.7761C16.5671 28.8194 16.5419 28.8589 16.5097 28.8922C16.4774 28.9255 16.4388 28.9521 16.3961 28.9702C16.3534 28.9883 16.3075 28.9976 16.2611 28.9976C16.2148 28.9976 16.1689 28.9883 16.1262 28.9702C16.0835 28.9521 16.0448 28.9255 16.0126 28.8922C15.9804 28.8589 15.9552 28.8194 15.9385 28.7761C15.9219 28.7328 15.9141 28.6866 15.9156 28.6403V20.8997C15.9186 20.81 15.9564 20.7251 16.0208 20.6628C16.0853 20.6004 16.1715 20.5656 16.2611 20.5656C16.3508 20.5656 16.437 20.6004 16.5014 20.6628C16.5659 20.7251 16.6036 20.81 16.6066 20.8997V28.6403Z" fill="#1B4B55"/>
</svg>
