<svg width="18" height="27" viewBox="0 0 18 27" fill="none" xmlns="http://www.w3.org/2000/svg">
<path d="M11.875 20.1C13.6 17.55 15.7 14.025 16.575 10.95C16.9 10.025 17.025 8.825 17.025 8.4C17.075 3.95 13.475 0.275 9.025 0.25C4.6 0.25 0.95 3.9 0.975 8.4C0.95 8.875 1.1 9.975 1.4 10.925C2.25 14 4.35 17.525 6.075 20.1C2.6 20.575 0.375 21.825 0.375 23.35C0.375 25.025 3.4 26.8 8.975 26.8C14.55 26.8 17.575 25.025 17.575 23.35C17.6 21.825 15.375 20.575 11.875 20.1ZM1.85 8.4C1.825 4.3 5.225 1.1 9 1.15C12.825 1.175 16.175 4.325 16.15 8.425C16.15 8.95 16.025 9.875 15.75 10.725C14.45 15.25 10.225 21.05 9 22.675C7.75 21.025 3.525 15.225 2.25 10.7C1.95 9.775 1.85 8.675 1.85 8.4ZM9 25.95C4.45 25.95 1.275 24.6 1.275 23.375C1.275 22.475 3.15 21.325 6.65 20.925C7.725 22.475 8.55 23.525 8.65 23.65C8.825 23.875 9.15 23.875 9.325 23.65C9.4 23.55 10.25 22.475 11.325 20.925C14.825 21.325 16.725 22.475 16.725 23.375C16.725 24.6 13.55 25.95 9 25.95Z" fill="#1B4B55"/>
<path d="M12.4498 8.325C12.4498 6.425 10.8998 4.875 8.9998 4.875C7.0998 4.875 5.5498 6.425 5.5498 8.325C5.5498 10.225 7.0998 11.775 8.9998 11.775C10.8998 11.775 12.4498 10.225 12.4498 8.325ZM6.4248 8.325C6.4248 6.9 7.5748 5.75 8.9998 5.75C10.4248 5.75 11.5748 6.9 11.5748 8.325C11.5748 9.75 10.4248 10.9 8.9998 10.9C7.5748 10.9 6.4248 9.75 6.4248 8.325Z" fill="#1B4B55"/>
</svg>
